<?xml version="1.0" standalone="no"?><!DOCTYPE svg PUBLIC "-//W3C//DTD SVG 1.1//EN" "http://www.w3.org/Graphics/SVG/1.1/DTD/svg11.dtd"><svg t="1712728791263" class="icon" viewBox="0 0 1024 1024" version="1.1" xmlns="http://www.w3.org/2000/svg" p-id="19435" xmlns:xlink="http://www.w3.org/1999/xlink" width="200" height="200"><path d="M0 0m512 0l0 0q512 0 512 512l0 0q0 512-512 512l0 0q-512 0-512-512l0 0q0-512 512-512Z" fill="#EFEDFA" p-id="19436"></path><path d="M333.90592 582.20544v-0.08192H288.60416c-23.63392 0-42.84416 19.78368-42.84416 44.11392v107.84768C245.76 758.41536 265.0112 778.24 288.60416 778.24h121.40544c23.63392 0 42.88512-19.82464 42.88512-44.15488V626.2784c0-24.33024-19.2512-44.11392-42.88512-44.11392H364.01152v0.08192h-30.1056z m194.92864-140.32896h42.63936c23.63392 0 42.88512-19.78368 42.88512-44.11392V289.91488c0-24.33024-19.2512-44.15488-42.88512-44.15488H450.1504c-23.67488 0-42.88512 19.82464-42.88512 44.15488V397.7216c0 24.33024 19.2512 44.11392 42.88512 44.11392h78.72512z m-78.72512-31.00672a12.94336 12.94336 0 0 1-12.73856-13.1072V289.91488c0-7.24992 5.69344-13.1072 12.6976-13.1072h121.40544c7.04512 0 12.6976 5.85728 12.73856 13.1072V397.7216c0 7.20896-5.7344 13.1072-12.6976 13.1072h-121.40544z m285.2864 171.2128h-45.8752v0.12288h-30.43328v-0.12288h-45.056c-23.67488 0-42.88512 19.82464-42.88512 44.15488v107.84768c0 24.33024 19.21024 44.15488 42.84416 44.15488h121.40544C758.9888 778.24 778.24 758.41536 778.24 734.08512V626.2784c0-24.33024-19.2512-44.15488-42.84416-44.15488z" fill="#6759B2" p-id="19437"></path><path d="M696.32 593.92v-93.51168h-166.58432V430.08h-30.9248l0.12288 70.41024L327.68 500.44928V593.92h31.25248v-57.26208h305.93024l-0.12288 57.1392v0.12288z" fill="#6759B2" p-id="19438"></path></svg>