<svg width="1024" height="1024" xmlns="http://www.w3.org/2000/svg" class="icon">
 <g>
  <title>background</title>
  <rect x="-1" y="-1" width="2277.55961" height="2277.55961" id="canvas_background" fill="none"/>
 </g>

 <g>
  <title>Layer 1</title>
  <rect fill="#fff" stroke="#000" stroke-width="0" x="114" y="357.479167" width="796" height="496" id="svg_2"/>
  <path d="m114,836.566667c0,44.1 35.7,79.8 79.8,79.8l636.8,0c44.2,0 79.8,-35.7 79.8,-79.8l0,-375.3l-796.4,0l0,375.3zm180.1,-205.6l6.8,-6.8c8.5,-8.6 22.1,-8.1 30.6,0.4l124,122.7l237,-237.8c11.5,-9.8 28.9,-8.6 37.8,3.4c10.2,11.5 8.9,29.1 -2.5,38.9l-257,258.7c-8.5,8.6 -22.1,8.1 -30.6,-0.4l-146.1,-148l-0.4,-0.4c-8.5,-8.5 -8.1,-22.1 0.4,-30.7zm536.5,-409l-90.9,0l0,-90c0,-14.9 -11.9,-26.3 -26.3,-26.3s-26.3,11.9 -26.3,26.3l0,90l-354,0l0,-90c0,-14.9 -11.9,-26.3 -26.3,-26.3s-26.3,11.9 -26.3,26.3l0,90l-86.6,0c-44.2,0 -79.8,35.7 -79.8,79.8l0,102.6l796.4,0l0,-102.6c-0.1,-44.2 -35.7,-79.8 -79.9,-79.8z" fill="#FFCA3A" id="svg_1"/>
 </g>
</svg>