<svg width="1024" height="1024" xmlns="http://www.w3.org/2000/svg" class="icon">
 <g>
  <title>background</title>
  <rect x="-1" y="-1" width="1026" height="1026" id="canvas_background" fill="none"/>
 </g>

 <g>
  <title>Layer 1</title>
  <rect stroke="#000" id="svg_6" height="1102.667078" width="1166.667029" y="-49.187668" x="-99.333528" opacity="0.5" stroke-width="1.5" fill="#ffffaa"/>
  <rect fill="#ffffff" stroke="null" stroke-width="null" stroke-opacity="null" x="613.874998" y="588.749991" width="241.249996" height="271.249996" id="svg_5"/>
  <rect fill="#ffffff" stroke="null" stroke-width="null" stroke-opacity="null" x="168.875005" y="563.749992" width="251.249996" height="129.999998" id="svg_4"/>
  <rect fill="#ffffff" stroke="null" stroke-width="null" stroke-opacity="null" x="145" y="220.21875" width="436" height="272" id="svg_3"/>
  <path d="m483.4,583.8c64.5,-109 198.5,-152.3 313,-101.2l0,-335.1c0,-22.6 -17.7,-40.7 -39.5,-40.7l-617.9,0c-21.6,0 -39.5,18.2 -39.5,40.7l0,658.2c0.2,16.9 8.4,32.8 22,42.6c1.4,2.1 3,3.9 4.9,5.6l59.5,53.9c7.2,6.4 16.4,9.8 26,9.7c9.6,0.1 18.9,-3.4 26.1,-9.8l51.3,-46.4l50.7,46c7.2,6.4 16.4,9.8 25.9,9.7c9.6,0.1 18.9,-3.4 26.2,-9.8l50.8,-46l56.7,46c11.8,9.7 27.9,11.9 41.8,5.7c-97.6,-79.4 -122.5,-220.2 -58,-329.1zm-252.9,-320.6l314.1,0c17.3,0 31.4,12.7 31.4,28.4s-14.1,28.4 -31.4,28.4l-314.1,0c-17.3,0 -31.4,-12.7 -31.4,-28.4c0,-15.6 14.1,-28.4 31.4,-28.4zm125.7,398.2l-125.7,0c-17.3,0 -31.4,-12.7 -31.4,-28.4s14.1,-28.4 31.4,-28.4l125.6,0c17.3,0 31.4,12.7 31.4,28.4c0.1,15.7 -14,28.4 -31.3,28.4zm-125.7,-170.6c-17.3,0 -31.4,-12.7 -31.4,-28.4s14.1,-28.4 31.4,-28.4l314.1,0c17.3,0 31.4,12.7 31.4,28.4s-14.1,28.4 -31.4,28.4l-314.1,0z" fill="#FFCA3A" id="svg_1"/>
  <path d="m718.2,519.2c-113.9,0 -206.2,89.1 -206.2,199.1s92.3,199.1 206.2,199.1c113.9,0 206.2,-89.1 206.2,-199.1c0,-109.9 -92.3,-199.1 -206.2,-199.1zm97.3,229.5c9.5,0 17.1,7.4 17.1,16.5s-7.7,16.5 -17.1,16.5l-68.7,0l0,38.5c0,9.2 -7.7,16.6 -17.2,16.6s-17.2,-7.4 -17.2,-16.6l0,-38.5l-68.8,0c-9.5,0 -17.1,-7.4 -17.1,-16.5s7.7,-16.5 17.1,-16.5l68.8,0l0,-33l-68.7,0c-9.1,-0.5 -16.2,-7.7 -16.2,-16.5s7.1,-16 16.2,-16.5l41.6,0l-44.5,-42.7c-3.2,-3.1 -5.1,-7.3 -5.1,-11.7c0,-4.4 1.8,-8.6 5.1,-11.7c6.7,-6.5 17.6,-6.5 24.3,0l63,60.6l63.1,-60.6c6.7,-6.4 17.5,-6.4 24.2,0c3.2,3.1 5.1,7.3 5.1,11.7c0,4.4 -1.8,8.6 -5.1,11.7l-44.3,42.7l44.4,0c6.4,-0.5 12.6,2.5 15.9,7.8c3.4,5.3 3.4,12 0,17.3c-3.4,5.3 -9.5,8.3 -15.9,7.8l-68.7,0l0,33.1l68.7,0z" fill="#FFCA3A" id="svg_2"/>
 </g>
</svg>