<?xml version="1.0" standalone="no"?><!DOCTYPE svg PUBLIC "-//W3C//DTD SVG 1.1//EN" "http://www.w3.org/Graphics/SVG/1.1/DTD/svg11.dtd"><svg t="1712028938015" class="icon" viewBox="0 0 1024 1024" version="1.1" xmlns="http://www.w3.org/2000/svg" p-id="12531" xmlns:xlink="http://www.w3.org/1999/xlink" width="200" height="200"><path d="M56.886857 56.886857m227.547429 0l455.131428 0q227.547429 0 227.547429 227.547429l0 455.131428q0 227.547429-227.547429 227.547429l-455.131428 0q-227.547429 0-227.547429-227.547429l0-455.131428q0-227.547429 227.547429-227.547429Z" fill="#23B9D6" p-id="12532"></path><path d="M765.842286 284.781714h-44.617143l-18.578286-44.617143-18.596571 44.617143h-44.617143l37.193143 29.732572-14.866286 52.041143 44.617143-33.444572 40.868571 33.462857-18.596571-52.059428 37.193143-29.732572z m-111.506286 148.662857h-33.462857l-11.154286-33.444571-11.154286 33.462857h-37.174857l26.020572 22.272-11.154286 37.174857 29.750857-22.272 29.732572 22.272-11.154286-37.174857 29.750857-22.290286z m111.506286 167.277715h-26.020572l-7.442285-26.020572-11.154286 26.020572H695.222857l18.596572 14.848-11.154286 29.750857 29.750857-18.578286 22.272 18.578286-11.154286-29.750857 22.308572-14.848zM509.385143 217.874286c-152.411429 14.866286-267.611429 141.257143-267.611429 297.362285 0 163.529143 133.833143 297.362286 297.362286 297.362286 92.909714 0 189.549714-44.617143 241.590857-111.506286H739.84c-163.547429 0-297.362286-133.814857-297.362286-297.362285-0.036571-70.619429 25.965714-133.814857 66.889143-185.856z" fill="#ffffff" p-id="12533" data-spm-anchor-id="a313x.search_index.0.i5.36723a81qxK6Kt" class="selected"></path></svg>