<svg width="1024" height="1024" xmlns="http://www.w3.org/2000/svg" class="icon">
 <g>
  <title>background</title>
  <rect x="-1" y="-1" width="1708.667186" height="1708.667186" id="canvas_background" fill="none"/>
 </g>

 <g>
  <title>Layer 1</title>
  <rect fill="#fff" stroke="#000" stroke-width="0" stroke-opacity="null" fill-opacity="null" x="180.461344" y="163.475758" width="658.461925" height="620.000364" id="svg_3"/>
  <path d="m348.2,224.8c-11.3,0 -20.5,-9.3 -20.5,-20.9l0,-95.1c0,-11.5 9.2,-20.9 20.5,-20.9s20.5,9.3 20.5,20.9l0,95.1c0,11.6 -9.2,20.9 -20.5,20.9zm20.5,-95.8l287,0l0,41l-287,0l0,-41zm307.5,95.8c-11.3,0 -20.5,-9.3 -20.5,-20.9l0,-95.1c0,-11.5 9.2,-20.9 20.5,-20.9s20.5,9.3 20.5,20.9l0,95.1c0,11.6 -9.2,20.9 -20.5,20.9z" fill="#FF5B5B" id="svg_2"/>
  <path d="m843.6,161c-19.6,-20.6 -46.1,-31.4 -73.6,-31.4l-73.1,0l0,40.7l73.1,0c35.5,0 64.1,29.3 64.1,65.6l0,15.1l-644.9,0l0,-15.2c0,-36.3 28.6,-65.6 64.1,-65.6l74.5,0l0,-41.2l-74.5,0c-57.7,0 -104.3,48.3 -104.3,106.9l0,221.6l0.1,0c-0.1,1.4 -0.1,2.8 -0.1,4.2l0,374.7c0,55.2 44.8,100 100,100l525.2,0c55.2,0 100,-44.8 100,-100l0,-374.8c0,-1.4 0,-2.8 -0.1,-4.2l0.2,0l0,-110.5l0,-110.5c0,-28.2 -11.1,-55.3 -30.7,-75.4zm-423.9,579.5l-125.6,0c-17.3,0 -31.4,-12.7 -31.4,-28.4s14.1,-28.4 31.4,-28.4l125.6,0c17.3,0 31.4,12.7 31.4,28.4c0.1,15.7 -14,28.4 -31.4,28.4zm188.5,-156.4l-314.1,0c-17.3,0 -31.4,-12.7 -31.4,-28.4s14.1,-28.4 31.4,-28.4l314.1,0c17.3,0 31.4,12.7 31.4,28.4s-14.1,28.4 -31.4,28.4zm0,-156.5l-314.1,0c-17.3,0 -31.4,-12.7 -31.4,-28.4s14.1,-28.4 31.4,-28.4l314.1,0c17.3,0 31.4,12.7 31.4,28.4s-14.1,28.4 -31.4,28.4z" fill="#FF5B5B" id="svg_1"/>
 </g>
</svg>