<svg width="1024" height="1024" xmlns="http://www.w3.org/2000/svg" class="icon">

 <g>
  <title>background</title>
  <rect fill="none" id="canvas_background" height="402" width="582" y="-1" x="-1"/>
 </g>
 <g>
  <title>Layer 1</title>
  <rect id="svg_4" height="718.666667" width="716" y="168.145841" x="155.333332" stroke-width="0" stroke="#000" fill="#fff"/>
  <path id="svg_1" fill="#1296db" d="m435.1,166.6l153.1,0l0,67.4l-153.1,0l0,-67.4z"/>
  <path id="svg_2" fill="#1296db" d="m833.2,166.6l-51.8,0l0,67.1l44.7,0c21.9,0 40.3,18.5 40.3,40.3l0,123.3l-709.4,0l0,-123.2c0,-21.9 18.4,-40.3 40.3,-40.3l45.2,0l0,-67.1l-51.7,0c-55.4,0 -100.7,45.4 -100.7,100.9l0,585c0,55.5 43.6,100.8 99,100.8l644.1,0c55.4,0 100.7,-45.4 100.7,-100.8l0,-585.1c0,-55.5 -45.3,-100.9 -100.7,-100.9zm-534.3,671.9c-31.9,0 -57.6,-25.8 -57.6,-57.8c0,-32 25.8,-57.8 57.6,-57.8c31.9,0 57.6,25.8 57.6,57.8c0,32 -25.8,57.8 -57.6,57.8zm1,-211.3c-31.9,0 -57.6,-25.8 -57.6,-57.8c0,-31.9 25.8,-57.8 57.6,-57.8c31.9,0 57.6,25.8 57.6,57.8c0.1,31.9 -25.7,57.8 -57.6,57.8zm211.3,211.3c-31.9,0 -57.6,-25.8 -57.6,-57.8c0,-32 25.8,-57.8 57.6,-57.8c31.9,0 57.6,25.8 57.6,57.8c0,32 -25.8,57.8 -57.6,57.8zm0,-211.3c-31.9,0 -57.6,-25.8 -57.6,-57.8c0,-31.9 25.8,-57.8 57.6,-57.8c31.9,0 57.6,25.8 57.6,57.8c0.1,31.9 -25.8,57.8 -57.6,57.8zm211,0c-31.9,0 -57.6,-25.8 -57.6,-57.8c0,-31.9 25.8,-57.8 57.6,-57.8c31.9,0 57.6,25.8 57.6,57.8c0.1,31.9 -25.7,57.8 -57.6,57.8zm0,0"/>
  <path id="svg_3" fill="#1296db" d="m338.8,319.9c27.8,0 50.3,-22.6 50.3,-50.3l0,-148.7c0,-27.8 -22.6,-50.3 -50.3,-50.3c-27.8,0 -50.4,22.6 -50.4,50.3l0,148.7c0.1,27.7 22.6,50.3 50.4,50.3zm345.6,0c27.8,0 50.3,-22.6 50.3,-50.3l0,-148.7c0,-27.8 -22.6,-50.3 -50.3,-50.3c-27.8,0 -50.3,22.6 -50.3,50.3l0,148.7c0.1,27.7 22.5,50.3 50.3,50.3zm0,0"/>
 </g>
</svg>