<svg width="1024" height="1024" xmlns="http://www.w3.org/2000/svg" class="icon">

 <g>
  <title>background</title>
  <rect fill="none" id="canvas_background" height="402" width="582" y="-1" x="-1"/>
 </g>
 <g>
  <title>Layer 1</title>
  <rect id="svg_2" height="621.428582" width="654.285725" y="265.013397" x="195.571423" stroke-width="0" stroke="#000" fill="#ffffff"/>
  <path id="svg_1" fill="#FB7676" d="m818.4,180.2l-43.7,0l0,-43.1c0,-23.8 -19.6,-43.1 -43.8,-43.1c-24.2,0 -43.8,19.3 -43.8,43.1l0,43.1l-350.1,0l0,-43.1c0,-15.4 -8.4,-29.6 -21.9,-37.3c-13.6,-7.7 -30.3,-7.7 -43.8,0c-13.6,7.7 -21.9,21.9 -21.9,37.3l0,43.1l-43.7,0c-48.3,0.1 -87.4,38.6 -87.6,86l0,578.5c0,47.4 39.4,86.2 87.6,86.2l612.8,0c48.4,-0.1 87.5,-38.7 87.6,-86.2l0,-578.3c-0.2,-47.6 -39.3,-86.1 -87.7,-86.2zm-299.7,135.7c73.8,0.2 133.4,58.6 133.6,130.6c-0.2,72 -59.8,130.3 -133.5,130.5c-73.7,-0.2 -133.4,-58.5 -133.6,-130.5c0.1,-72 59.7,-130.3 133.5,-130.6zm253.7,509.2l-520.8,0l0,-41.4c0,-82.7 173.6,-128.3 260.4,-128.3c86.8,0 260.4,45.5 260.4,128.3l0,41.4z"/>
 </g>
</svg>