<?xml version="1.0" standalone="no"?><!DOCTYPE svg PUBLIC "-//W3C//DTD SVG 1.1//EN" "http://www.w3.org/Graphics/SVG/1.1/DTD/svg11.dtd"><svg t="1712044746419" class="icon" viewBox="0 0 1024 1024" version="1.1" xmlns="http://www.w3.org/2000/svg" p-id="4285" xmlns:xlink="http://www.w3.org/1999/xlink" width="200" height="200"><path d="M725.333333 0a170.666667 170.666667 0 0 1 170.453334 162.133333L896 170.666667v170.666666a42.666667 42.666667 0 0 1-85.034667 4.992L810.666667 341.333333V170.666667a85.333333 85.333333 0 0 0-78.933334-85.12L725.333333 85.333333H213.333333a85.333333 85.333333 0 0 0-85.12 78.933334L128 170.666667v682.666666a85.333333 85.333333 0 0 0 78.933333 85.12L213.333333 938.666667h170.666667a42.666667 42.666667 0 0 1 4.992 85.034666L384 1024H213.333333a170.666667 170.666667 0 0 1-170.453333-162.133333L42.666667 853.333333V170.666667A170.666667 170.666667 0 0 1 204.8 0.213333L213.333333 0h512z m233.941334 503.466667a42.666667 42.666667 0 0 1 0 27.008l-153.557334 460.586666a42.666667 42.666667 0 0 1-77.781333 7.253334L630.186667 822.186667a42.666667 42.666667 0 0 0-16.597334-16.554667l-176.085333-97.834667a42.666667 42.666667 0 0 1 7.253333-77.781333l460.586667-153.514667a42.666667 42.666667 0 0 1 53.973333 26.965334z m-107.946667 80.938666l-287.658667 95.872 91.306667 50.773334a128 128 0 0 1 45.141333 42.069333l4.608 7.68 50.688 91.178667 95.914667-287.573334zM426.666667 426.666667a42.666667 42.666667 0 0 1 0 85.333333H256a42.666667 42.666667 0 0 1 0-85.333333h170.666667z m170.666666-213.333334a42.666667 42.666667 0 0 1 0 85.333334H256a42.666667 42.666667 0 1 1 0-85.333334h341.333333z" fill="#515151" p-id="4286"></path></svg>