<?xml version="1.0" standalone="no"?><!DOCTYPE svg PUBLIC "-//W3C//DTD SVG 1.1//EN" "http://www.w3.org/Graphics/SVG/1.1/DTD/svg11.dtd"><svg t="1712044536265" class="icon" viewBox="0 0 1024 1024" version="1.1" xmlns="http://www.w3.org/2000/svg" p-id="6950" xmlns:xlink="http://www.w3.org/1999/xlink" width="200" height="200"><path d="M676.352 85.333333A128 128 0 0 1 804.266667 208.533333l0.085333 4.8v173.12a42.666667 42.666667 0 0 1-85.226667 3.2l-0.106666-3.2V213.333333a42.666667 42.666667 0 0 0-39.466667-42.56L676.330667 170.666667H213.333333a42.666667 42.666667 0 0 0-42.56 39.466666L170.666667 213.333333v606.293334a42.666667 42.666667 0 0 0 39.466666 42.56l3.2 0.106666h146.922667a42.666667 42.666667 0 0 1 3.2 85.226667l-3.2 0.106667H213.333333a128 128 0 0 1-127.914666-123.2L85.333333 819.626667V213.333333a128 128 0 0 1 123.2-127.914666L213.333333 85.333333h463.018667z m227.712 411.477334a42.666667 42.666667 0 0 1 10.368 56.874666l-2.005333 2.88-272.213334 360.96a42.666667 42.666667 0 0 1-63.744 4.970667l-2.410666-2.538667-111.552-127.146666a42.666667 42.666667 0 0 1 61.589333-58.944l2.56 2.666666 76.970667 87.744L844.309333 505.173333a42.666667 42.666667 0 0 1 59.733334-8.362666z m-501.589333-60.672a42.666667 42.666667 0 0 1 3.2 85.226666l-3.2 0.106667h-141.717334a42.666667 42.666667 0 0 1-3.2-85.205333l3.2-0.128h141.717334z m153.408-162.112a42.666667 42.666667 0 0 1 3.2 85.226666l-3.2 0.106667H260.757333a42.666667 42.666667 0 0 1-3.2-85.226667l3.2-0.106666h295.125334z" fill="#515151" p-id="6951" data-spm-anchor-id="a313x.search_index.0.i1.2d4b3a81sEpQPD" class="selected"></path></svg>