<?xml version="1.0" standalone="no"?><!DOCTYPE svg PUBLIC "-//W3C//DTD SVG 1.1//EN" "http://www.w3.org/Graphics/SVG/1.1/DTD/svg11.dtd"><svg t="1712476658150" class="icon" viewBox="0 0 1024 1024" version="1.1" xmlns="http://www.w3.org/2000/svg" p-id="30749" xmlns:xlink="http://www.w3.org/1999/xlink" width="200" height="200"><path d="M747.2 85.333333a128 128 0 0 1 127.914667 123.2l0.085333 4.8v109.12a42.666667 42.666667 0 0 1-85.226667 3.2l-0.106666-3.2V213.333333a42.666667 42.666667 0 0 0-39.466667-42.56L747.178667 170.666667H277.333333a42.666667 42.666667 0 0 0-42.56 39.466666L234.666667 213.333333v606.293334a42.666667 42.666667 0 0 0 39.466666 42.56l3.2 0.106666h469.866667a42.666667 42.666667 0 0 0 42.56-39.466666l0.106667-3.2v-107.818667a42.666667 42.666667 0 0 1 85.226666-3.2l0.106667 3.2v107.818667a128 128 0 0 1-123.2 127.914666l-4.8 0.085334H277.333333a128 128 0 0 1-127.914666-123.2L149.333333 819.626667V213.333333a128 128 0 0 1 123.2-127.914666L277.333333 85.333333h469.866667z m-178.048 260.266667a42.666667 42.666667 0 0 1-1.493333 57.664l-2.688 2.538667-78.229334 68.010666h351.061334a42.666667 42.666667 0 0 1 3.2 85.226667l-3.2 0.106667H486.826667l78.165333 68.010666a42.666667 42.666667 0 0 1 6.485333 57.322667l-2.304 2.88a42.666667 42.666667 0 0 1-57.322666 6.485333l-2.88-2.304-164.202667-142.869333a42.666667 42.666667 0 0 1-2.538667-61.973333l2.56-2.410667 164.181334-142.869333a42.666667 42.666667 0 0 1 60.202666 4.181333z" fill="#515151" p-id="30750"></path></svg>